<svg width="16" height="15" viewBox="0 0 16 15" fill="none" xmlns="http://www.w3.org/2000/svg">
<path d="M14.8556 7.35179C14.8556 3.50545 11.7319 0.387369 7.87855 0.387369C4.02523 0.387369 0.901489 3.50545 0.901489 7.35179C0.901489 11.1981 4.02523 14.3162 7.87855 14.3162C11.7319 14.3162 14.8556 11.1981 14.8556 7.35179Z" stroke="black" stroke-width="0.70363" stroke-miterlimit="10"/>
<path d="M14.8303 7.33916C14.8303 3.48562 11.7065 0.362102 7.85351 0.362102C4.00055 0.362102 0.876221 3.48562 0.876221 7.33916" stroke="black" stroke-width="0.410451" stroke-miterlimit="10" stroke-linecap="round"/>
<path fill-rule="evenodd" clip-rule="evenodd" d="M6.46877 3.79849C6.47621 3.83176 6.48611 3.85389 6.5154 3.90274C6.57069 3.99495 6.62156 4.09007 6.65998 4.17307C6.76734 4.40499 6.85745 4.737 6.87856 4.97845C6.89763 5.19655 6.89162 5.40752 6.85573 5.77919C6.82141 6.13468 6.81945 6.31556 6.84759 6.53069C6.90348 6.95797 7.07345 7.34385 7.40987 7.80727C7.52567 7.96679 7.64789 8.11826 7.90768 8.42423C8.20093 8.7696 8.29032 8.88388 8.42517 9.08585C8.46996 9.15294 8.52259 9.23794 8.53735 9.26705C8.54276 9.27772 8.54364 9.28234 8.54091 9.28564C8.53604 9.2915 8.47491 9.31077 8.41617 9.32495C8.39 9.33127 8.32355 9.34383 8.2685 9.35286C8.04256 9.3899 7.96713 9.40596 7.8829 9.43496C7.70508 9.49619 7.58592 9.61194 7.54615 9.76208C7.53644 9.79873 7.53409 9.87233 7.54132 9.91379C7.55634 10 7.61057 10.1088 7.70292 10.2379C7.85388 10.449 8.0084 10.6238 8.27436 10.8841C8.32722 10.9359 8.36986 10.9788 8.36912 10.9796C8.36737 10.9813 8.24581 10.9523 8.09949 10.9152C7.95785 10.8793 7.80151 10.8365 7.66193 10.7955C7.5327 10.7575 7.52579 10.7561 7.48317 10.7585C7.36492 10.7652 7.26149 10.846 7.23235 10.9544C7.22332 10.988 7.22424 11.0661 7.23407 11.1C7.25598 11.1759 7.30439 11.2357 7.37216 11.2707C7.43681 11.3041 7.91237 11.436 8.23568 11.5103C8.45075 11.5597 8.70329 11.6088 8.81313 11.6225C8.9563 11.6403 9.07327 11.6032 9.15851 11.5128C9.29004 11.3734 9.2823 11.1588 9.13963 10.9886C9.07931 10.9166 8.94463 10.7782 8.73846 10.5764C8.48085 10.3242 8.37206 10.2105 8.26212 10.0786C8.22224 10.0308 8.14707 9.9321 8.14707 9.92757C8.14707 9.9237 8.25079 9.90395 8.36531 9.88603C8.57806 9.85274 8.67706 9.82512 8.78961 9.76766C8.91928 9.70145 9.00767 9.62066 9.05398 9.52603C9.08526 9.46211 9.09827 9.40948 9.10104 9.33564C9.10702 9.1761 9.06686 9.07374 8.89599 8.81311C8.75908 8.60427 8.60839 8.41144 8.27666 8.02058C7.99392 7.68746 7.90799 7.5788 7.78871 7.40362C7.67457 7.23597 7.57075 7.0516 7.50909 6.90704C7.46172 6.79596 7.41495 6.63643 7.39105 6.50444C7.37734 6.42871 7.37422 6.37643 7.3744 6.2255C7.37456 6.07999 7.37746 6.02394 7.39399 5.84646C7.41677 5.60199 7.42214 5.54204 7.42694 5.47891C7.4341 5.38483 7.43681 5.17203 7.43198 5.08334C7.40952 4.67091 7.31574 4.29911 7.13649 3.9119C7.08906 3.80945 7.01206 3.66756 6.967 3.59959C6.89454 3.49026 6.75571 3.44167 6.6401 3.48517C6.61856 3.49327 6.58042 3.51756 6.55833 3.53723C6.52207 3.56953 6.48589 3.62918 6.47307 3.6778C6.46396 3.71237 6.46197 3.76811 6.46877 3.79849Z" fill="black"/>
<circle cx="6.18515" cy="2.85471" r="0.316616" transform="rotate(-90 6.18515 2.85471)" fill="black"/>
</svg>
