<svg width="25" height="24" viewBox="0 0 25 24" fill="none" xmlns="http://www.w3.org/2000/svg">
<path d="M3.4369 10.4624L11.2752 1.73878C11.364 1.63985 11.4717 1.55963 11.5919 1.50281C11.7121 1.44599 11.8425 1.41372 11.9753 1.40788C12.1081 1.40204 12.2408 1.42275 12.3655 1.4688C12.4903 1.51485 12.6046 1.58532 12.7018 1.67608L16.3712 5.10484M5.58808 11.7361L4.82272 9.88838M7.11882 15.4317L7.5015 16.3555M9.03224 20.0511L9.7976 21.8988M2.97496 10.6537L17.757 4.53081C18.7775 4.10811 19.9475 4.59271 20.3702 5.6132L23.8143 13.9281C24.237 14.9486 23.7524 16.1185 22.7319 16.5412L7.94984 22.6642C6.92935 23.0869 5.75942 22.6023 5.33672 21.5818L1.89257 13.2669C1.46987 12.2464 1.95447 11.0764 2.97496 10.6537Z" stroke="white" stroke-width="2" stroke-linecap="round" stroke-linejoin="round"/>
</svg>
