<svg width="16" height="16" viewBox="0 0 16 16" fill="none" xmlns="http://www.w3.org/2000/svg">
<path d="M8.2663 15.1276C12.1126 15.1276 15.2307 12.0039 15.2307 8.15056C15.2307 4.29724 12.1126 1.1735 8.2663 1.1735C4.41996 1.1735 1.30188 4.29724 1.30188 8.15056C1.30188 12.0039 4.41996 15.1276 8.2663 15.1276Z" stroke="black" stroke-width="0.70363" stroke-miterlimit="10"/>
<path d="M8.27893 15.1023C12.1325 15.1023 15.256 11.9784 15.256 8.12548C15.256 4.27252 12.1325 1.14819 8.27893 1.14819" stroke="black" stroke-width="0.410451" stroke-miterlimit="10" stroke-linecap="round"/>
<path fill-rule="evenodd" clip-rule="evenodd" d="M11.8196 6.74068C11.7863 6.74812 11.7642 6.75802 11.7153 6.78731C11.6231 6.8426 11.528 6.89347 11.445 6.93189C11.213 7.03925 10.881 7.12936 10.6396 7.15047C10.4215 7.16954 10.2105 7.16353 9.83885 7.12764C9.48336 7.09332 9.30248 7.09136 9.08734 7.1195C8.66006 7.1754 8.27419 7.34536 7.81077 7.68178C7.65125 7.79758 7.49978 7.9198 7.19381 8.1796C6.84844 8.47284 6.73415 8.56223 6.53218 8.69708C6.4651 8.74187 6.3801 8.7945 6.35098 8.80926C6.34032 8.81467 6.3357 8.81556 6.3324 8.81282C6.32654 8.80796 6.30727 8.74682 6.29309 8.68808C6.28677 8.66191 6.27421 8.59546 6.26518 8.54041C6.22814 8.31447 6.21208 8.23904 6.18307 8.15481C6.12185 7.97699 6.0061 7.85784 5.85596 7.81806C5.81931 7.80835 5.74571 7.80601 5.70425 7.81323C5.61804 7.82825 5.50928 7.88248 5.38014 7.97483C5.16902 8.1258 4.99428 8.28031 4.73389 8.54627C4.68214 8.59913 4.63919 8.64177 4.63844 8.64103C4.6367 8.63929 4.66573 8.51773 4.70283 8.3714C4.73874 8.22976 4.78151 8.07342 4.82255 7.93384C4.86054 7.80461 4.86197 7.7977 4.85956 7.75508C4.85288 7.63683 4.77209 7.5334 4.66362 7.50426C4.63003 7.49524 4.55197 7.49615 4.51799 7.50598C4.44216 7.5279 4.38235 7.5763 4.34734 7.64407C4.31395 7.70873 4.18199 8.18428 4.10773 8.50759C4.05833 8.72266 4.00927 8.9752 3.99557 9.08505C3.97771 9.22821 4.01484 9.34518 4.10519 9.43042C4.24462 9.56195 4.45927 9.55422 4.62947 9.41154C4.70144 9.35122 4.83981 9.21655 5.04167 9.01037C5.29389 8.75276 5.40756 8.64397 5.53942 8.53403C5.58725 8.49415 5.68594 8.41899 5.69047 8.41899C5.69434 8.41899 5.71408 8.5227 5.732 8.63722C5.7653 8.84997 5.79292 8.94897 5.85038 9.06152C5.91659 9.19119 5.99738 9.27958 6.09201 9.32589C6.15593 9.35718 6.20856 9.37018 6.2824 9.37295C6.44194 9.37894 6.5443 9.33877 6.80493 9.1679C7.01377 9.031 7.20659 8.88031 7.59746 8.54857C7.93057 8.26584 8.03923 8.1799 8.21441 8.06063C8.38207 7.94648 8.56644 7.84266 8.711 7.78101C8.82208 7.73363 8.98161 7.68686 9.1136 7.66296C9.18933 7.64926 9.24161 7.64613 9.39254 7.64631C9.53805 7.64647 9.59409 7.64937 9.77158 7.6659C10.0161 7.68868 10.076 7.69405 10.1391 7.69886C10.2332 7.70601 10.446 7.70872 10.5347 7.70389C10.9471 7.68143 11.3189 7.58765 11.7061 7.4084C11.8086 7.36098 11.9505 7.28397 12.0184 7.23892C12.1278 7.16645 12.1764 7.02762 12.1329 6.91201C12.1248 6.89047 12.1005 6.85233 12.0808 6.83024C12.0485 6.79398 11.9889 6.7578 11.9402 6.74498C11.9057 6.73587 11.8499 6.73388 11.8196 6.74068Z" fill="black"/>
<circle cx="12.7634" cy="6.45707" r="0.316616" fill="black"/>
</svg>
