<svg width="23" height="21" viewBox="0 0 23 21" fill="none" xmlns="http://www.w3.org/2000/svg">
<path d="M4.21313 6.29373L14.7931 1.23373C14.9131 1.17633 15.0433 1.14342 15.1761 1.13693C15.3089 1.13044 15.4416 1.1505 15.5666 1.19595C15.6916 1.24139 15.8062 1.31129 15.9038 1.40157C16.0014 1.49185 16.0801 1.6007 16.1351 1.72173L18.2131 6.29373M5.71313 8.29373V6.29373M5.71313 12.2937V13.2937M5.71313 17.2937V19.2937M3.71313 6.29373L19.7131 6.29373C20.8177 6.29373 21.7131 7.18916 21.7131 8.29373V17.2937C21.7131 18.3983 20.8177 19.2937 19.7131 19.2937H3.71313C2.60857 19.2937 1.71313 18.3983 1.71313 17.2937L1.71313 8.29373C1.71313 7.18916 2.60857 6.29373 3.71313 6.29373Z" stroke="white" stroke-width="2" stroke-linecap="round" stroke-linejoin="round"/>
</svg>
